<?xml version="1.0" standalone="yes"?>

<svg version="1.1" viewBox="0.0 0.0 817.0 545.0" fill="none" stroke="none" stroke-linecap="square" stroke-miterlimit="10" xmlns="http://www.w3.org/2000/svg" xmlns:xlink="http://www.w3.org/1999/xlink"><clipPath id="p.0"><path d="m0 0l817.0 0l0 545.0l-817.0 0l0 -545.0z" clip-rule="nonzero"></path></clipPath><g clip-path="url(#p.0)"><path fill="#000000" fill-opacity="0.0" d="m0 0l817.7638 0l0 545.4593l-817.7638 0z" fill-rule="nonzero"></path><path fill="#000000" fill-opacity="0.0" d="m336.08603 295.99225l144.22046 0l0 112.0l-144.22046 0z" fill-rule="nonzero"></path><path stroke="#000000" stroke-width="2.0" stroke-linejoin="round" stroke-linecap="butt" d="m336.08603 295.99225l144.22046 0l0 112.0l-144.22046 0z" fill-rule="nonzero"></path><path fill="#000000" fill-opacity="0.0" d="m631.81104 8.0l176.18896 0l0 160.17479l-176.18896 0z" fill-rule="nonzero"></path><path stroke="#a64d79" stroke-width="3.0" stroke-linejoin="round" stroke-linecap="butt" d="m631.81104 8.0l176.18896 0l0 160.17479l-176.18896 0z" fill-rule="nonzero"></path><path fill="#000000" fill-opacity="0.0" d="m639.81104 16.0l160.28345 0l0 39.995728l-160.28345 0z" fill-rule="nonzero"></path><path fill="#a64d79" d="m694.4827 42.881615q3.65625 0 3.65625 -2.5q0 -0.765625 -0.328125 -1.296875q-0.328125 -0.546875 -0.875 -0.9375q-0.546875 -0.40625 -1.265625 -0.6875q-0.703125 -0.296875 -1.5 -0.578125q-0.90625 -0.3125 -1.71875 -0.703125q-0.8125 -0.40625 -1.421875 -0.9375q-0.59375 -0.546875 -0.953125 -1.28125q-0.34375 -0.75 -0.34375 -1.8125q0 -2.171875 1.484375 -3.390625q1.5 -1.234375 4.109375 -1.234375q1.515625 0 2.75 0.328125q1.234375 0.3125 1.8125 0.703125l-0.75 1.890625q-0.5 -0.3125 -1.5 -0.609375q-0.984375 -0.296875 -2.3125 -0.296875q-0.671875 0 -1.25 0.140625q-0.578125 0.140625 -1.015625 0.4375q-0.421875 0.28125 -0.671875 0.734375q-0.25 0.4375 -0.25 1.046875q0 0.671875 0.265625 1.125q0.265625 0.453125 0.734375 0.796875q0.484375 0.34375 1.125 0.640625q0.640625 0.28125 1.40625 0.578125q1.078125 0.421875 1.96875 0.859375q0.90625 0.4375 1.5625 1.03125q0.65625 0.59375 1.015625 1.421875q0.375 0.828125 0.375 2.015625q0 2.1875 -1.609375 3.359375q-1.59375 1.171875 -4.5 1.171875q-0.984375 0 -1.8125 -0.140625q-0.828125 -0.125 -1.484375 -0.296875q-0.640625 -0.1875 -1.109375 -0.390625q-0.453125 -0.203125 -0.71875 -0.34375l0.6875 -1.921875q0.5625 0.3125 1.6875 0.703125q1.125 0.375 2.75 0.375zm12.767944 0q3.65625 0 3.65625 -2.5q0 -0.765625 -0.328125 -1.296875q-0.328125 -0.546875 -0.875 -0.9375q-0.546875 -0.40625 -1.265625 -0.6875q-0.703125 -0.296875 -1.5 -0.578125q-0.90625 -0.3125 -1.71875 -0.703125q-0.8125 -0.40625 -1.421875 -0.9375q-0.59375 -0.546875 -0.953125 -1.28125q-0.34375 -0.75 -0.34375 -1.8125q0 -2.171875 1.484375 -3.390625q1.5 -1.234375 4.109375 -1.234375q1.515625 0 2.75 0.328125q1.234375 0.3125 1.8125 0.703125l-0.75 1.890625q-0.5 -0.3125 -1.5 -0.609375q-0.984375 -0.296875 -2.3125 -0.296875q-0.671875 0 -1.25 0.140625q-0.578125 0.140625 -1.015625 0.4375q-0.421875 0.28125 -0.671875 0.734375q-0.25 0.4375 -0.25 1.046875q0 0.671875 0.265625 1.125q0.265625 0.453125 0.734375 0.796875q0.484375 0.34375 1.125 0.640625q0.640625 0.28125 1.40625 0.578125q1.078125 0.421875 1.96875 0.859375q0.90625 0.4375 1.5625 1.03125q0.65625 0.59375 1.015625 1.421875q0.375 0.828125 0.375 2.015625q0 2.1875 -1.609375 3.359375q-1.59375 1.171875 -4.5 1.171875q-0.984375 0 -1.8125 -0.140625q-0.828125 -0.125 -1.484375 -0.296875q-0.640625 -0.1875 -1.109375 -0.390625q-0.453125 -0.203125 -0.71875 -0.34375l0.6875 -1.921875q0.5625 0.3125 1.6875 0.703125q1.125 0.375 2.75 0.375zm13.330444 -15.140625q3.5 0 5.375 1.328125q1.890625 1.328125 1.890625 3.96875q0 1.4375 -0.515625 2.46875q-0.515625 1.015625 -1.484375 1.65625q-0.96875 0.625 -2.375 0.921875q-1.390625 0.28125 -3.140625 0.28125l-1.84375 0l0 6.171875l-2.328125 0l0 -16.390625q0.984375 -0.234375 2.1875 -0.3125q1.21875 -0.09375 2.234375 -0.09375zm0.1875 2.03125q-1.484375 0 -2.28125 0.078125l0 6.53125l1.75 0q1.203125 0 2.15625 -0.15625q0.96875 -0.15625 1.625 -0.53125q0.65625 -0.375 1.015625 -1.015625q0.359375 -0.65625 0.359375 -1.65625q0 -0.96875 -0.375 -1.59375q-0.359375 -0.625 -1.0 -0.984375q-0.640625 -0.375 -1.484375 -0.515625q-0.828125 -0.15625 -1.765625 -0.15625zm29.182861 6.4375q0 2.15625 -0.671875 3.765625q-0.671875 1.59375 -1.90625 2.640625q-1.21875 1.03125 -2.921875 1.546875q-1.703125 0.515625 -3.734375 0.515625q-1.015625 0 -2.234375 -0.09375q-1.203125 -0.078125 -2.1875 -0.3125l0 -16.125q0.984375 -0.234375 2.1875 -0.3125q1.21875 -0.09375 2.234375 -0.09375q2.03125 0 3.734375 0.515625q1.703125 0.515625 2.921875 1.5625q1.234375 1.03125 1.90625 2.640625q0.671875 1.59375 0.671875 3.75zm-9.046875 6.4375q3.3125 0 4.9375 -1.6875q1.640625 -1.703125 1.640625 -4.75q0 -3.046875 -1.640625 -4.734375q-1.625 -1.703125 -4.9375 -1.703125q-0.984375 0 -1.53125 0.03125q-0.53125 0.015625 -0.75 0.046875l0 12.71875q0.21875 0.03125 0.75 0.0625q0.546875 0.015625 1.53125 0.015625z" fill-rule="nonzero"></path><path fill="#000000" fill-opacity="0.0" d="m423.81104 8.0l176.18896 0l0 160.50795l-176.18896 0z" fill-rule="nonzero"></path><path stroke="#3d85c6" stroke-width="3.0" stroke-linejoin="round" stroke-linecap="butt" d="m423.81104 8.0l176.18896 0l0 160.50795l-176.18896 0z" fill-rule="nonzero"></path><path fill="#000000" fill-opacity="0.0" d="m431.81104 16.0l160.28345 0l0 40.003784l-160.28345 0z" fill-rule="nonzero"></path><path fill="#3d85c6" d="m487.59872 42.88564q3.65625 0 3.65625 -2.5q0 -0.765625 -0.328125 -1.296875q-0.328125 -0.546875 -0.875 -0.9375q-0.546875 -0.40625 -1.265625 -0.6875q-0.703125 -0.296875 -1.5 -0.578125q-0.90625 -0.3125 -1.71875 -0.703125q-0.8125 -0.40625 -1.421875 -0.9375q-0.59375 -0.546875 -0.953125 -1.28125q-0.34375 -0.75 -0.34375 -1.8125q0 -2.171875 1.484375 -3.390625q1.5 -1.234375 4.109375 -1.234375q1.515625 0 2.75 0.328125q1.234375 0.3125 1.8125 0.703125l-0.75 1.890625q-0.5 -0.3125 -1.5 -0.609375q-0.984375 -0.296875 -2.3125 -0.296875q-0.671875 0 -1.25 0.140625q-0.578125 0.140625 -1.015625 0.4375q-0.421875 0.28125 -0.671875 0.734375q-0.25 0.4375 -0.25 1.046875q0 0.671875 0.265625 1.125q0.265625 0.453125 0.734375 0.796875q0.484375 0.34375 1.125 0.640625q0.640625 0.28125 1.40625 0.578125q1.078125 0.421875 1.96875 0.859375q0.90625 0.4375 1.5625 1.03125q0.65625 0.59375 1.015625 1.421875q0.375 0.828125 0.375 2.015625q0 2.1875 -1.609375 3.359375q-1.59375 1.171875 -4.5 1.171875q-0.984375 0 -1.8125 -0.140625q-0.828125 -0.125 -1.484375 -0.296875q-0.640625 -0.1875 -1.109375 -0.390625q-0.453125 -0.203125 -0.71875 -0.34375l0.6875 -1.921875q0.5625 0.3125 1.6875 0.703125q1.125 0.375 2.75 0.375zm12.767944 0q3.65625 0 3.65625 -2.5q0 -0.765625 -0.328125 -1.296875q-0.328125 -0.546875 -0.875 -0.9375q-0.546875 -0.40625 -1.265625 -0.6875q-0.703125 -0.296875 -1.5 -0.578125q-0.90625 -0.3125 -1.71875 -0.703125q-0.8125 -0.40625 -1.421875 -0.9375q-0.59375 -0.546875 -0.953125 -1.28125q-0.34375 -0.75 -0.34375 -1.8125q0 -2.171875 1.484375 -3.390625q1.5 -1.234375 4.109375 -1.234375q1.515625 0 2.75 0.328125q1.234375 0.3125 1.8125 0.703125l-0.75 1.890625q-0.5 -0.3125 -1.5 -0.609375q-0.984375 -0.296875 -2.3125 -0.296875q-0.671875 0 -1.25 0.140625q-0.578125 0.140625 -1.015625 0.4375q-0.421875 0.28125 -0.671875 0.734375q-0.25 0.4375 -0.25 1.046875q0 0.671875 0.265625 1.125q0.265625 0.453125 0.734375 0.796875q0.484375 0.34375 1.125 0.640625q0.640625 0.28125 1.40625 0.578125q1.078125 0.421875 1.96875 0.859375q0.90625 0.4375 1.5625 1.03125q0.65625 0.59375 1.015625 1.421875q0.375 0.828125 0.375 2.015625q0 2.1875 -1.609375 3.359375q-1.59375 1.171875 -4.5 1.171875q-0.984375 0 -1.8125 -0.140625q-0.828125 -0.125 -1.484375 -0.296875q-0.640625 -0.1875 -1.109375 -0.390625q-0.453125 -0.203125 -0.71875 -0.34375l0.6875 -1.921875q0.5625 0.3125 1.6875 0.703125q1.125 0.375 2.75 0.375zm13.330475 -15.140625q3.5 0 5.375 1.328125q1.890625 1.328125 1.890625 3.96875q0 1.4375 -0.515625 2.46875q-0.515625 1.015625 -1.484375 1.65625q-0.96875 0.625 -2.375 0.921875q-1.390625 0.28125 -3.140625 0.28125l-1.84375 0l0 6.171875l-2.328125 0l0 -16.390625q0.984375 -0.234375 2.1875 -0.3125q1.21875 -0.09375 2.234375 -0.09375zm0.1875 2.03125q-1.484375 0 -2.28125 0.078125l0 6.53125l1.75 0q1.203125 0 2.15625 -0.15625q0.96875 -0.15625 1.625 -0.53125q0.65625 -0.375 1.015625 -1.015625q0.359375 -0.65625 0.359375 -1.65625q0 -0.96875 -0.375 -1.59375q-0.359375 -0.625 -1.0 -0.984375q-0.640625 -0.375 -1.484375 -0.515625q-0.828125 -0.15625 -1.765625 -0.15625zm22.6828 15.125q-1.75 0 -3.203125 -0.578125q-1.4375 -0.578125 -2.46875 -1.671875q-1.03125 -1.109375 -1.59375 -2.71875q-0.5625 -1.625 -0.5625 -3.71875q0 -2.09375 0.625 -3.703125q0.640625 -1.625 1.71875 -2.71875q1.09375 -1.109375 2.53125 -1.6875q1.4375 -0.578125 3.078125 -0.578125q1.03125 0 1.859375 0.140625q0.828125 0.140625 1.4375 0.34375q0.609375 0.1875 0.984375 0.390625q0.390625 0.1875 0.53125 0.28125l-0.671875 1.921875q-0.21875 -0.15625 -0.625 -0.3125q-0.40625 -0.171875 -0.921875 -0.34375q-0.515625 -0.171875 -1.125 -0.265625q-0.609375 -0.109375 -1.234375 -0.109375q-1.328125 0 -2.390625 0.453125q-1.046875 0.453125 -1.796875 1.3125q-0.734375 0.859375 -1.140625 2.109375q-0.390625 1.234375 -0.390625 2.765625q0 1.484375 0.34375 2.71875q0.359375 1.21875 1.046875 2.09375q0.703125 0.875 1.75 1.359375q1.046875 0.46875 2.4375 0.46875q1.609375 0 2.65625 -0.328125q1.0625 -0.34375 1.59375 -0.59375l0.59375 1.90625q-0.171875 0.125 -0.609375 0.3125q-0.421875 0.171875 -1.078125 0.34375q-0.640625 0.171875 -1.515625 0.28125q-0.859375 0.125 -1.859375 0.125z" fill-rule="nonzero"></path><path fill="#000000" fill-opacity="0.0" d="m215.81102 8.0l176.18898 0l0 160.06456l-176.18898 0z" fill-rule="nonzero"></path><path stroke="#6aa84f" stroke-width="3.0" stroke-linejoin="round" stroke-linecap="butt" d="m215.81102 8.0l176.18898 0l0 160.06456l-176.18898 0z" fill-rule="nonzero"></path><path fill="#000000" fill-opacity="0.0" d="m223.81102 16.0l160.28346 0l0 40.007614l-160.28346 0z" fill-rule="nonzero"></path><path fill="#6aa84f" d="m279.32272 42.887554q3.65625 0 3.65625 -2.5q0 -0.765625 -0.328125 -1.296875q-0.328125 -0.546875 -0.875 -0.9375q-0.546875 -0.40625 -1.265625 -0.6875q-0.703125 -0.296875 -1.5 -0.578125q-0.90625 -0.3125 -1.71875 -0.703125q-0.8125 -0.40625 -1.421875 -0.9375q-0.59375 -0.546875 -0.953125 -1.28125q-0.34375 -0.75 -0.34375 -1.8125q0 -2.171875 1.484375 -3.390625q1.5 -1.234375 4.109375 -1.234375q1.515625 0 2.75 0.328125q1.234375 0.3125 1.8125 0.703125l-0.75 1.890625q-0.5 -0.3125 -1.5 -0.609375q-0.984375 -0.296875 -2.3125 -0.296875q-0.671875 0 -1.25 0.140625q-0.578125 0.140625 -1.015625 0.4375q-0.421875 0.28125 -0.671875 0.734375q-0.25 0.4375 -0.25 1.046875q0 0.671875 0.265625 1.125q0.265625 0.453125 0.734375 0.796875q0.484375 0.34375 1.125 0.640625q0.640625 0.28125 1.40625 0.578125q1.078125 0.421875 1.96875 0.859375q0.90625 0.4375 1.5625 1.03125q0.65625 0.59375 1.015625 1.421875q0.375 0.828125 0.375 2.015625q0 2.1875 -1.609375 3.359375q-1.59375 1.171875 -4.5 1.171875q-0.984375 0 -1.8125 -0.140625q-0.828125 -0.125 -1.484375 -0.296875q-0.640625 -0.1875 -1.109375 -0.390625q-0.453125 -0.203125 -0.71875 -0.34375l0.6875 -1.921875q0.5625 0.3125 1.6875 0.703125q1.125 0.375 2.75 0.375zm12.767944 0q3.65625 0 3.65625 -2.5q0 -0.765625 -0.328125 -1.296875q-0.328125 -0.546875 -0.875 -0.9375q-0.546875 -0.40625 -1.265625 -0.6875q-0.703125 -0.296875 -1.5 -0.578125q-0.90625 -0.3125 -1.71875 -0.703125q-0.8125 -0.40625 -1.421875 -0.9375q-0.59375 -0.546875 -0.953125 -1.28125q-0.34375 -0.75 -0.34375 -1.8125q0 -2.171875 1.484375 -3.390625q1.5 -1.234375 4.109375 -1.234375q1.515625 0 2.75 0.328125q1.234375 0.3125 1.8125 0.703125l-0.75 1.890625q-0.5 -0.3125 -1.5 -0.609375q-0.984375 -0.296875 -2.3125 -0.296875q-0.671875 0 -1.25 0.140625q-0.578125 0.140625 -1.015625 0.4375q-0.421875 0.28125 -0.671875 0.734375q-0.25 0.4375 -0.25 1.046875q0 0.671875 0.265625 1.125q0.265625 0.453125 0.734375 0.796875q0.484375 0.34375 1.125 0.640625q0.640625 0.28125 1.40625 0.578125q1.078125 0.421875 1.96875 0.859375q0.90625 0.4375 1.5625 1.03125q0.65625 0.59375 1.015625 1.421875q0.375 0.828125 0.375 2.015625q0 2.1875 -1.609375 3.359375q-1.59375 1.171875 -4.5 1.171875q-0.984375 0 -1.8125 -0.140625q-0.828125 -0.125 -1.484375 -0.296875q-0.640625 -0.1875 -1.109375 -0.390625q-0.453125 -0.203125 -0.71875 -0.34375l0.6875 -1.921875q0.5625 0.3125 1.6875 0.703125q1.125 0.375 2.75 0.375zm13.330475 -15.140625q3.5 0 5.375 1.328125q1.890625 1.328125 1.890625 3.96875q0 1.4375 -0.515625 2.46875q-0.515625 1.015625 -1.484375 1.65625q-0.96875 0.625 -2.375 0.921875q-1.390625 0.28125 -3.140625 0.28125l-1.84375 0l0 6.171875l-2.328125 0l0 -16.390625q0.984375 -0.234375 2.1875 -0.3125q1.21875 -0.09375 2.234375 -0.09375zm0.1875 2.03125q-1.484375 0 -2.28125 0.078125l0 6.53125l1.75 0q1.203125 0 2.15625 -0.15625q0.96875 -0.15625 1.625 -0.53125q0.65625 -0.375 1.015625 -1.015625q0.359375 -0.65625 0.359375 -1.65625q0 -0.96875 -0.375 -1.59375q-0.359375 -0.625 -1.0 -0.984375q-0.640625 -0.375 -1.484375 -0.515625q-0.828125 -0.15625 -1.765625 -0.15625zm20.010956 14.90625q-0.5 0 -1.09375 -0.03125q-0.578125 -0.015625 -1.171875 -0.0625q-0.578125 -0.046875 -1.15625 -0.109375q-0.578125 -0.078125 -1.0625 -0.203125l0 -16.125q0.484375 -0.125 1.0625 -0.1875q0.578125 -0.078125 1.15625 -0.125q0.59375 -0.046875 1.171875 -0.0625q0.578125 -0.03125 1.078125 -0.03125q1.4375 0 2.6875 0.21875q1.265625 0.203125 2.1875 0.71875q0.9375 0.515625 1.453125 1.359375q0.53125 0.84375 0.53125 2.0625q0 1.375 -0.65625 2.25q-0.640625 0.875 -1.71875 1.3125q1.46875 0.421875 2.328125 1.359375q0.859375 0.9375 0.859375 2.640625q0 2.5 -1.84375 3.765625q-1.828125 1.25 -5.8125 1.25zm-2.171875 -7.890625l0 5.859375q0.25 0.015625 0.609375 0.046875q0.3125 0.015625 0.734375 0.03125q0.421875 0.015625 0.984375 0.015625q1.03125 0 1.953125 -0.125q0.921875 -0.140625 1.609375 -0.46875q0.703125 -0.34375 1.125 -0.9375q0.421875 -0.609375 0.421875 -1.515625q0 -0.8125 -0.3125 -1.375q-0.3125 -0.578125 -0.90625 -0.90625q-0.578125 -0.34375 -1.40625 -0.484375q-0.8125 -0.140625 -1.8125 -0.140625l-3.0 0zm0 -1.875l2.4375 0q0.875 0 1.640625 -0.109375q0.765625 -0.125 1.328125 -0.4375q0.5625 -0.3125 0.875 -0.8125q0.328125 -0.515625 0.328125 -1.28125q0 -0.71875 -0.34375 -1.203125q-0.328125 -0.5 -0.921875 -0.796875q-0.578125 -0.296875 -1.375 -0.4375q-0.78125 -0.15625 -1.671875 -0.15625q-0.890625 0 -1.390625 0.03125q-0.5 0.015625 -0.90625 0.0625l0 5.140625z" fill-rule="nonzero"></path><path fill="#000000" fill-opacity="0.0" d="m8.0 8.0l176.0 0l0 160.69292l-176.0 0z" fill-rule="nonzero"></path><path stroke="#cc0000" stroke-width="3.0" stroke-linejoin="round" stroke-linecap="butt" d="m8.0 8.0l176.0 0l0 160.69292l-176.0 0z" fill-rule="nonzero"></path><path fill="#000000" fill-opacity="0.0" d="m15.716539 16.0l160.28346 0l0 40.0l-160.28346 0z" fill-rule="nonzero"></path><path fill="#cc0000" d="m70.98823 42.883747q3.65625 0 3.65625 -2.5q0 -0.765625 -0.328125 -1.296875q-0.328125 -0.546875 -0.875 -0.9375q-0.546875 -0.40625 -1.265625 -0.6875q-0.703125 -0.296875 -1.5 -0.578125q-0.90625 -0.3125 -1.71875 -0.703125q-0.8125 -0.40625 -1.421875 -0.9375q-0.59375 -0.546875 -0.953125 -1.28125q-0.34375 -0.75 -0.34375 -1.8125q0 -2.171873 1.484375 -3.390623q1.5 -1.234375 4.109375 -1.234375q1.515625 0 2.75 0.328125q1.234375 0.3125 1.8125 0.703125l-0.75 1.890625q-0.5 -0.3125 -1.5 -0.609375q-0.984375 -0.296875 -2.3125 -0.296875q-0.671875 0 -1.25 0.140625q-0.578125 0.140625 -1.015625 0.4375q-0.421875 0.28125 -0.671875 0.734375q-0.25 0.4375 -0.25 1.046875q0 0.6718731 0.265625 1.1249981q0.265625 0.453125 0.734375 0.796875q0.484375 0.34375 1.125 0.640625q0.640625 0.28125 1.40625 0.578125q1.078125 0.421875 1.96875 0.859375q0.90625 0.4375 1.5625 1.03125q0.65625 0.59375 1.015625 1.421875q0.375 0.828125 0.375 2.015625q0 2.1875 -1.609375 3.359375q-1.59375 1.171875 -4.5 1.171875q-0.984375 0 -1.8125 -0.140625q-0.828125 -0.125 -1.484375 -0.296875q-0.640625 -0.1875 -1.109375 -0.390625q-0.453125 -0.203125 -0.71875 -0.34375l0.6875 -1.921875q0.5625 0.3125 1.6875 0.703125q1.125 0.375 2.75 0.375zm12.76796 0q3.65625 0 3.65625 -2.5q0 -0.765625 -0.328125 -1.296875q-0.328125 -0.546875 -0.875 -0.9375q-0.546875 -0.40625 -1.265625 -0.6875q-0.703125 -0.296875 -1.5 -0.578125q-0.90625 -0.3125 -1.71875 -0.703125q-0.8125 -0.40625 -1.421875 -0.9375q-0.59375 -0.546875 -0.953125 -1.28125q-0.34375 -0.75 -0.34375 -1.8125q0 -2.171873 1.484375 -3.390623q1.5 -1.234375 4.109375 -1.234375q1.515625 0 2.75 0.328125q1.234375 0.3125 1.8125 0.703125l-0.75 1.890625q-0.5 -0.3125 -1.5 -0.609375q-0.984375 -0.296875 -2.3125 -0.296875q-0.671875 0 -1.25 0.140625q-0.578125 0.140625 -1.015625 0.4375q-0.421875 0.28125 -0.671875 0.734375q-0.25 0.4375 -0.25 1.046875q0 0.6718731 0.265625 1.1249981q0.265625 0.453125 0.734375 0.796875q0.484375 0.34375 1.125 0.640625q0.640625 0.28125 1.40625 0.578125q1.078125 0.421875 1.96875 0.859375q0.90625 0.4375 1.5625 1.03125q0.65625 0.59375 1.015625 1.421875q0.375 0.828125 0.375 2.015625q0 2.1875 -1.609375 3.359375q-1.59375 1.171875 -4.5 1.171875q-0.984375 0 -1.8125 -0.140625q-0.828125 -0.125 -1.484375 -0.296875q-0.640625 -0.1875 -1.109375 -0.390625q-0.453125 -0.203125 -0.71875 -0.34375l0.6875 -1.921875q0.5625 0.3125 1.6875 0.703125q1.125 0.375 2.75 0.375zm13.33046 -15.140623q3.5 0 5.375 1.328125q1.890625 1.328125 1.890625 3.968748q0 1.4375 -0.515625 2.46875q-0.515625 1.015625 -1.484375 1.65625q-0.96875 0.625 -2.375 0.921875q-1.390625 0.28125 -3.140625 0.28125l-1.84375 0l0 6.171875l-2.328125 0l0 -16.390623q0.984375 -0.234375 2.1875 -0.3125q1.21875 -0.09375 2.234375 -0.09375zm0.1875 2.03125q-1.484375 0 -2.28125 0.078125l0 6.531248l1.75 0q1.203125 0 2.15625 -0.15625q0.96875 -0.15625 1.625 -0.53125q0.65625 -0.375 1.015625 -1.015625q0.359375 -0.65625 0.359375 -1.65625q0 -0.96875 -0.375 -1.5937481q-0.359375 -0.625 -1.0 -0.984375q-0.640625 -0.375 -1.484375 -0.515625q-0.828125 -0.15625 -1.765625 -0.15625zm26.635956 14.765623q-0.40625 -1.078125 -0.765625 -2.125q-0.359375 -1.046875 -0.75 -2.125l-7.53125 0l-1.515625 4.25l-2.421875 0q0.96875 -2.640625 1.796875 -4.875q0.84375 -2.25 1.640625 -4.265625q0.8125 -2.015625 1.609375 -3.843748q0.796875 -1.84375 1.65625 -3.640625l2.140625 0q0.859375 1.796875 1.640625 3.640625q0.796875 1.8281231 1.59375 3.843748q0.8125 2.015625 1.65625 4.265625q0.84375 2.234375 1.796875 4.875l-2.546875 0zm-2.1875 -6.171875q-0.765625 -2.078125 -1.515625 -4.03125q-0.75 -1.96875 -1.578125 -3.765623q-0.828125 1.7968731 -1.59375 3.765623q-0.75 1.953125 -1.5 4.03125l6.1875 0z" fill-rule="nonzero"></path><path fill="#000000" fill-opacity="0.0" d="m431.86218 64.0l160.12598 0l0 96.755905l-160.12598 0z" fill-rule="nonzero"></path><path stroke="#000000" stroke-width="2.0" stroke-linejoin="round" stroke-linecap="butt" d="m431.86218 64.0l160.12598 0l0 96.755905l-160.12598 0z" fill-rule="nonzero"></path><path fill="#a64d79" d="m448.0 392.3387l-80.0 0l64.0 -40.0l16.0 8.0z" fill-rule="nonzero"></path><path stroke="#000000" stroke-width="2.0" stroke-linejoin="round" stroke-linecap="butt" d="m448.0 392.3387l-80.0 0l64.0 -40.0l16.0 8.0z" fill-rule="nonzero"></path><path fill="#6aa84f" d="m368.0 392.17273l0 -80.0l24.0 40.0l40.0 0z" fill-rule="nonzero"></path><path stroke="#000000" stroke-width="2.0" stroke-linejoin="round" stroke-linecap="butt" d="m368.0 392.17273l0 -80.0l24.0 40.0l40.0 0z" fill-rule="nonzero"></path><path fill="#3d85c6" d="m448.0 360.17273l0 -48.0l-56.0 40.0l40.0 0z" fill-rule="nonzero"></path><path stroke="#000000" stroke-width="2.0" stroke-linejoin="round" stroke-linecap="butt" d="m448.0 360.17273l0 -48.0l-56.0 40.0l40.0 0z" fill-rule="nonzero"></path><path fill="#cc0000" d="m368.0 312.17273l80.0 0l-56.0 40.0z" fill-rule="nonzero"></path><path stroke="#000000" stroke-width="2.0" stroke-linejoin="round" stroke-linecap="butt" d="m368.0 312.17273l80.0 0l-56.0 40.0z" fill-rule="nonzero"></path><path fill="#000000" fill-opacity="0.0" d="m639.8622 64.0l160.12598 0l0 96.44095l-160.12598 0z" fill-rule="nonzero"></path><path stroke="#000000" stroke-width="2.0" stroke-linejoin="round" stroke-linecap="butt" d="m639.8622 64.0l160.12598 0l0 96.44095l-160.12598 0z" fill-rule="nonzero"></path><path fill="#000000" fill-opacity="0.0" d="m368.0 456.0l80.0 0l0 80.0l-80.0 0z" fill-rule="nonzero"></path><path stroke="#000000" stroke-width="2.0" stroke-linejoin="round" stroke-linecap="butt" d="m368.0 456.0l80.0 0l0 80.0l-80.0 0z" fill-rule="nonzero"></path><path fill="#cc0000" d="m56.0 96.338684l80.0 0l-56.0 40.0z" fill-rule="nonzero"></path><path stroke="#000000" stroke-width="2.0" stroke-linejoin="round" stroke-linecap="butt" d="m56.0 96.338684l80.0 0l-56.0 40.0z" fill-rule="nonzero"></path><path fill="#6aa84f" d="m271.81104 152.33868l0 -80.0l24.0 40.0l40.0 0z" fill-rule="nonzero"></path><path stroke="#000000" stroke-width="2.0" stroke-linejoin="round" stroke-linecap="butt" d="m271.81104 152.33868l0 -80.0l24.0 40.0l40.0 0z" fill-rule="nonzero"></path><path fill="#3d85c6" d="m536.0 136.33868l0 -48.0l-56.0 40.0l40.0 0z" fill-rule="nonzero"></path><path stroke="#000000" stroke-width="2.0" stroke-linejoin="round" stroke-linecap="butt" d="m536.0 136.33868l0 -48.0l-56.0 40.0l40.0 0z" fill-rule="nonzero"></path><path fill="#a64d79" d="m760.0 136.33868l-80.0 0l64.0 -40.0l16.0 8.0z" fill-rule="nonzero"></path><path stroke="#000000" stroke-width="2.0" stroke-linejoin="round" stroke-linecap="butt" d="m760.0 136.33868l-80.0 0l64.0 -40.0l16.0 8.0z" fill-rule="nonzero"></path><path fill="#000000" fill-opacity="0.0" d="m359.65616 471.8188l96.0 0l0 47.84253l-96.0 0z" fill-rule="nonzero"></path><path fill="#000000" d="m385.26413 501.34753q2.890625 0 2.890625 -1.96875q0 -0.609375 -0.265625 -1.03125q-0.25 -0.4375 -0.6875 -0.75q-0.4375 -0.3125 -1.0 -0.53125q-0.546875 -0.234375 -1.171875 -0.46875q-0.734375 -0.25 -1.375 -0.5625q-0.640625 -0.3125 -1.125 -0.734375q-0.46875 -0.4375 -0.75 -1.015625q-0.265625 -0.59375 -0.265625 -1.421875q0 -1.734375 1.171875 -2.703125q1.171875 -0.96875 3.25 -0.96875q1.203125 0 2.171875 0.265625q0.984375 0.25 1.4375 0.546875l-0.59375 1.5q-0.390625 -0.25 -1.1875 -0.484375q-0.78125 -0.234375 -1.828125 -0.234375q-0.53125 0 -1.0 0.125q-0.453125 0.109375 -0.796875 0.34375q-0.328125 0.21875 -0.53125 0.578125q-0.203125 0.34375 -0.203125 0.8125q0 0.53125 0.203125 0.890625q0.21875 0.359375 0.59375 0.640625q0.390625 0.28125 0.890625 0.515625q0.5 0.21875 1.109375 0.4375q0.859375 0.34375 1.5625 0.6875q0.71875 0.34375 1.234375 0.828125q0.53125 0.46875 0.8125 1.125q0.28125 0.65625 0.28125 1.578125q0 1.734375 -1.265625 2.671875q-1.265625 0.921875 -3.5625 0.921875q-0.78125 0 -1.4375 -0.109375q-0.640625 -0.09375 -1.15625 -0.234375q-0.515625 -0.140625 -0.890625 -0.296875q-0.359375 -0.171875 -0.578125 -0.28125l0.546875 -1.53125q0.4375 0.25 1.328125 0.5625q0.90625 0.296875 2.1875 0.296875zm6.20636 -3.609375q0 -1.3125 0.375 -2.28125q0.390625 -0.984375 1.015625 -1.625q0.625 -0.65625 1.4375 -0.96875q0.8125 -0.328125 1.671875 -0.328125q2.0 0 3.0625 1.25q1.0625 1.234375 1.0625 3.78125q0 0.109375 0 0.296875q0 0.1875 -0.015625 0.328125l-6.765625 0q0.109375 1.546875 0.890625 2.34375q0.78125 0.796875 2.4375 0.796875q0.921875 0 1.5625 -0.15625q0.640625 -0.171875 0.953125 -0.328125l0.25 1.484375q-0.3125 0.171875 -1.125 0.359375q-0.8125 0.203125 -1.828125 0.203125q-1.296875 0 -2.234375 -0.390625q-0.9375 -0.390625 -1.546875 -1.078125q-0.609375 -0.6875 -0.90625 -1.625q-0.296875 -0.9375 -0.296875 -2.0625zm6.78125 -0.96875q0.015625 -1.203125 -0.609375 -1.96875q-0.609375 -0.765625 -1.6875 -0.765625q-0.609375 0 -1.078125 0.234375q-0.46875 0.234375 -0.796875 0.625q-0.3125 0.375 -0.5 0.875q-0.171875 0.484375 -0.234375 1.0l4.90625 0zm8.491364 6.125q-1.203125 0 -2.109375 -0.375q-0.890625 -0.390625 -1.515625 -1.078125q-0.609375 -0.6875 -0.921875 -1.625q-0.296875 -0.9375 -0.296875 -2.078125q0 -1.140625 0.328125 -2.09375q0.34375 -0.953125 0.9375 -1.640625q0.609375 -0.6875 1.484375 -1.078125q0.890625 -0.390625 1.984375 -0.390625q0.65625 0 1.3125 0.109375q0.671875 0.109375 1.28125 0.359375l-0.390625 1.5q-0.40625 -0.1875 -0.9375 -0.296875q-0.515625 -0.109375 -1.09375 -0.109375q-1.484375 0 -2.28125 0.9375q-0.78125 0.921875 -0.78125 2.703125q0 0.796875 0.171875 1.46875q0.1875 0.65625 0.578125 1.140625q0.390625 0.46875 1.0 0.734375q0.609375 0.25 1.484375 0.25q0.703125 0 1.265625 -0.125q0.578125 -0.140625 0.890625 -0.296875l0.25 1.484375q-0.15625 0.09375 -0.4375 0.1875q-0.28125 0.078125 -0.640625 0.140625q-0.359375 0.078125 -0.78125 0.125q-0.40625 0.046875 -0.78125 0.046875zm8.034515 -10.328125q0.21875 0 0.515625 0.03125q0.296875 0.03125 0.578125 0.078125q0.296875 0.046875 0.53125 0.09375q0.234375 0.046875 0.34375 0.09375l-0.296875 1.53125q-0.21875 -0.078125 -0.703125 -0.171875q-0.484375 -0.109375 -1.234375 -0.109375q-0.5 0 -0.984375 0.109375q-0.484375 0.09375 -0.640625 0.140625l0 8.296875l-1.765625 0l0 -9.46875q0.625 -0.21875 1.5625 -0.421875q0.9375 -0.203125 2.09375 -0.203125zm2.9981995 5.171875q0 -1.3125 0.375 -2.28125q0.390625 -0.984375 1.015625 -1.625q0.625 -0.65625 1.4375 -0.96875q0.8125 -0.328125 1.671875 -0.328125q2.0 0 3.0625 1.25q1.0625 1.234375 1.0625 3.78125q0 0.109375 0 0.296875q0 0.1875 -0.015625 0.328125l-6.765625 0q0.109375 1.546875 0.890625 2.34375q0.78125 0.796875 2.4375 0.796875q0.921875 0 1.5625 -0.15625q0.640625 -0.171875 0.953125 -0.328125l0.25 1.484375q-0.3125 0.171875 -1.125 0.359375q-0.8125 0.203125 -1.828125 0.203125q-1.296875 0 -2.234375 -0.390625q-0.9375 -0.390625 -1.546875 -1.078125q-0.609375 -0.6875 -0.90625 -1.625q-0.296875 -0.9375 -0.296875 -2.0625zm6.78125 -0.96875q0.015625 -1.203125 -0.609375 -1.96875q-0.609375 -0.765625 -1.6875 -0.765625q-0.609375 0 -1.078125 0.234375q-0.46875 0.234375 -0.796875 0.625q-0.3125 0.375 -0.5 0.875q-0.171875 0.484375 -0.234375 1.0l4.90625 0zm5.850708 -3.984375l3.75 0l0 1.484375l-3.75 0l0 4.546875q0 0.75 0.109375 1.234375q0.125 0.484375 0.34375 0.765625q0.234375 0.265625 0.578125 0.390625q0.34375 0.109375 0.796875 0.109375q0.796875 0 1.28125 -0.171875q0.484375 -0.1875 0.671875 -0.265625l0.34375 1.453125q-0.265625 0.140625 -0.9375 0.328125q-0.65625 0.203125 -1.515625 0.203125q-1.0 0 -1.65625 -0.25q-0.65625 -0.25 -1.0625 -0.765625q-0.390625 -0.515625 -0.5625 -1.265625q-0.15625 -0.75 -0.15625 -1.734375l0 -8.828125l1.765625 -0.296875l0 3.0625z" fill-rule="nonzero"></path><path fill="#000000" fill-opacity="0.0" d="m408.0 448.0l0 -32.0" fill-rule="nonzero"></path><path stroke="#000000" stroke-width="3.0" stroke-linejoin="round" stroke-linecap="butt" d="m408.0 448.0l0 -14.0" fill-rule="evenodd"></path><path fill="#000000" stroke="#000000" stroke-width="3.0" stroke-linecap="butt" d="m412.9552 434.0l-4.9552 -13.614288l-4.9552 13.614288z" fill-rule="evenodd"></path><path fill="#000000" fill-opacity="0.0" d="m360.0 320.52768l96.0 0l0 63.811035l-96.0 0z" fill-rule="nonzero"></path><path fill="#ffffff" d="m385.60794 347.04068q2.890625 0 2.890625 -1.96875q0 -0.609375 -0.265625 -1.03125q-0.25 -0.4375 -0.6875 -0.75q-0.4375 -0.3125 -1.0 -0.53125q-0.546875 -0.234375 -1.171875 -0.46875q-0.734375 -0.25 -1.375 -0.5625q-0.640625 -0.3125 -1.125 -0.734375q-0.46875 -0.4375 -0.75 -1.015625q-0.265625 -0.59375 -0.265625 -1.421875q0 -1.734375 1.171875 -2.703125q1.171875 -0.96875 3.25 -0.96875q1.203125 0 2.171875 0.265625q0.984375 0.25 1.4375 0.546875l-0.59375 1.5q-0.390625 -0.25 -1.1875 -0.484375q-0.78125 -0.234375 -1.828125 -0.234375q-0.53125 0 -1.0 0.125q-0.453125 0.109375 -0.796875 0.34375q-0.328125 0.21875 -0.53125 0.578125q-0.203125 0.34375 -0.203125 0.8125q0 0.53125 0.203125 0.890625q0.21875 0.359375 0.59375 0.640625q0.390625 0.28125 0.890625 0.515625q0.5 0.21875 1.109375 0.4375q0.859375 0.34375 1.5625 0.6875q0.71875 0.34375 1.234375 0.828125q0.53125 0.46875 0.8125 1.125q0.28125 0.65625 0.28125 1.578125q0 1.734375 -1.265625 2.671875q-1.265625 0.921875 -3.5625 0.921875q-0.78125 0 -1.4375 -0.109375q-0.640625 -0.09375 -1.15625 -0.234375q-0.515625 -0.140625 -0.890625 -0.296875q-0.359375 -0.171875 -0.578125 -0.28125l0.546875 -1.53125q0.4375 0.25 1.328125 0.5625q0.90625 0.296875 2.1875 0.296875zm6.2063904 -3.609375q0 -1.3125 0.375 -2.28125q0.390625 -0.984375 1.015625 -1.625q0.625 -0.65625 1.4375 -0.96875q0.8125 -0.328125 1.671875 -0.328125q2.0 0 3.0625 1.25q1.0625 1.234375 1.0625 3.78125q0 0.109375 0 0.296875q0 0.1875 -0.015625 0.328125l-6.765625 0q0.109375 1.546875 0.890625 2.34375q0.78125 0.796875 2.4375 0.796875q0.921875 0 1.5625 -0.15625q0.640625 -0.171875 0.953125 -0.328125l0.25 1.484375q-0.3125 0.171875 -1.125 0.359375q-0.8125 0.203125 -1.828125 0.203125q-1.296875 0 -2.234375 -0.390625q-0.9375 -0.390625 -1.546875 -1.078125q-0.609375 -0.6875 -0.90625 -1.625q-0.296875 -0.9375 -0.296875 -2.0625zm6.78125 -0.96875q0.015625 -1.203125 -0.609375 -1.96875q-0.609375 -0.765625 -1.6875 -0.765625q-0.609375 0 -1.078125 0.234375q-0.46875 0.234375 -0.796875 0.625q-0.3125 0.375 -0.5 0.875q-0.171875 0.484375 -0.234375 1.0l4.90625 0zm8.491333 6.125q-1.203125 0 -2.109375 -0.375q-0.890625 -0.390625 -1.515625 -1.078125q-0.609375 -0.6875 -0.921875 -1.625q-0.296875 -0.9375 -0.296875 -2.078125q0 -1.140625 0.328125 -2.09375q0.34375 -0.953125 0.9375 -1.640625q0.609375 -0.6875 1.484375 -1.078125q0.890625 -0.390625 1.984375 -0.390625q0.65625 0 1.3125 0.109375q0.671875 0.109375 1.28125 0.359375l-0.390625 1.5q-0.40625 -0.1875 -0.9375 -0.296875q-0.515625 -0.109375 -1.09375 -0.109375q-1.484375 0 -2.28125 0.9375q-0.78125 0.921875 -0.78125 2.703125q0 0.796875 0.171875 1.46875q0.1875 0.65625 0.578125 1.140625q0.390625 0.46875 1.0 0.734375q0.609375 0.25 1.484375 0.25q0.703125 0 1.265625 -0.125q0.578125 -0.140625 0.890625 -0.296875l0.25 1.484375q-0.15625 0.09375 -0.4375 0.1875q-0.28125 0.078125 -0.640625 0.140625q-0.359375 0.078125 -0.78125 0.125q-0.40625 0.046875 -0.78125 0.046875zm8.034546 -10.328125q0.21875 0 0.515625 0.03125q0.296875 0.03125 0.578125 0.078125q0.296875 0.046875 0.53125 0.09375q0.234375 0.046875 0.34375 0.09375l-0.296875 1.53125q-0.21875 -0.078125 -0.703125 -0.171875q-0.484375 -0.109375 -1.234375 -0.109375q-0.5 0 -0.984375 0.109375q-0.484375 0.09375 -0.640625 0.140625l0 8.296875l-1.765625 0l0 -9.46875q0.625 -0.21875 1.5625 -0.421875q0.9375 -0.203125 2.09375 -0.203125zm2.998169 5.171875q0 -1.3125 0.375 -2.28125q0.390625 -0.984375 1.015625 -1.625q0.625 -0.65625 1.4375 -0.96875q0.8125 -0.328125 1.671875 -0.328125q2.0 0 3.0625 1.25q1.0625 1.234375 1.0625 3.78125q0 0.109375 0 0.296875q0 0.1875 -0.015625 0.328125l-6.765625 0q0.109375 1.546875 0.890625 2.34375q0.78125 0.796875 2.4375 0.796875q0.921875 0 1.5625 -0.15625q0.640625 -0.171875 0.953125 -0.328125l0.25 1.484375q-0.3125 0.171875 -1.125 0.359375q-0.8125 0.203125 -1.828125 0.203125q-1.296875 0 -2.234375 -0.390625q-0.9375 -0.390625 -1.546875 -1.078125q-0.609375 -0.6875 -0.90625 -1.625q-0.296875 -0.9375 -0.296875 -2.0625zm6.78125 -0.96875q0.015625 -1.203125 -0.609375 -1.96875q-0.609375 -0.765625 -1.6875 -0.765625q-0.609375 0 -1.078125 0.234375q-0.46875 0.234375 -0.796875 0.625q-0.3125 0.375 -0.5 0.875q-0.171875 0.484375 -0.234375 1.0l4.90625 0zm5.8507385 -3.984375l3.75 0l0 1.484375l-3.75 0l0 4.546875q0 0.75 0.109375 1.234375q0.125 0.484375 0.34375 0.765625q0.234375 0.265625 0.578125 0.390625q0.34375 0.109375 0.796875 0.109375q0.796875 0 1.28125 -0.171875q0.484375 -0.1875 0.671875 -0.265625l0.34375 1.453125q-0.265625 0.140625 -0.9375 0.328125q-0.65625 0.203125 -1.515625 0.203125q-1.0 0 -1.65625 -0.25q-0.65625 -0.25 -1.0625 -0.765625q-0.390625 -0.515625 -0.5625 -1.265625q-0.15625 -0.75 -0.15625 -1.734375l0 -8.828125l1.765625 -0.296875l0 3.0625z" fill-rule="nonzero"></path><path fill="#ffffff" d="m390.93353 357.1813q-0.578125 0.65625 -1.328125 1.453125q-0.734375 0.78125 -1.546875 1.609375q-0.8125 0.8125 -1.609375 1.625q-0.796875 0.796875 -1.5 1.46875q0.828125 0.578125 1.734375 1.421875q0.90625 0.828125 1.78125 1.78125q0.875 0.9375 1.640625 1.9375q0.78125 0.984375 1.296875 1.875l-2.171875 0q-0.578125 -0.890625 -1.3125 -1.796875q-0.734375 -0.90625 -1.5625 -1.71875q-0.828125 -0.828125 -1.671875 -1.53125q-0.84375 -0.703125 -1.640625 -1.203125l0 6.25l-1.84375 0l0 -13.171875l1.84375 0l0 5.8125q0.65625 -0.625 1.453125 -1.40625q0.796875 -0.796875 1.578125 -1.59375q0.78125 -0.796875 1.46875 -1.515625q0.703125 -0.734375 1.171875 -1.296875l2.21875 0zm1.3598022 8.765625l8.703125 0l0 1.5l-8.703125 0l0 -1.5zm0 -4.046875l8.703125 0l0 1.5l-8.703125 0l0 -1.5zm20.178375 8.453125q-0.421875 -0.703125 -0.96875 -1.578125q-0.53125 -0.875 -1.15625 -1.8125q-0.625 -0.9375 -1.296875 -1.90625q-0.671875 -0.96875 -1.34375 -1.875q-0.671875 -0.90625 -1.296875 -1.703125q-0.625 -0.796875 -1.15625 -1.40625l0 10.28125l-1.796875 0l0 -13.171875l1.453125 0q0.890625 0.953125 1.90625 2.21875q1.015625 1.265625 2.015625 2.609375q1.0 1.328125 1.875 2.625q0.890625 1.296875 1.5 2.296875l0 -9.75l1.8125 0l0 13.171875l-1.546875 0zm3.9255066 -4.40625l8.703125 0l0 1.5l-8.703125 0l0 -1.5zm0 -4.046875l8.703125 0l0 1.5l-8.703125 0l0 -1.5zm10.28775 3.890625q0.359375 -0.828125 0.984375 -1.9375q0.625 -1.125 1.40625 -2.296875q0.796875 -1.171875 1.6875 -2.3125q0.90625 -1.140625 1.828125 -2.0625l1.6875 0l0 8.359375l1.5625 0l0 1.453125l-1.5625 0l0 3.359375l-1.703125 0l0 -3.359375l-5.890625 0l0 -1.203125zm5.890625 -6.515625q-0.578125 0.609375 -1.15625 1.359375q-0.578125 0.75 -1.140625 1.578125q-0.546875 0.8125 -1.03125 1.671875q-0.484375 0.84375 -0.859375 1.65625l4.1875 0l0 -6.265625z" fill-rule="nonzero"></path><path fill="#000000" fill-opacity="0.0" d="m344.0 288.3387l-200.0 -112.000015" fill-rule="nonzero"></path><path stroke="#cc0000" stroke-width="3.0" stroke-linejoin="round" stroke-linecap="butt" d="m344.0 288.3387l-184.29489 -103.20514" fill-rule="evenodd"></path><path fill="#cc0000" stroke="#cc0000" stroke-width="3.0" stroke-linecap="butt" d="m162.12624 180.81012l-14.299683 -2.328537l9.457428 10.975418z" fill-rule="evenodd"></path><path fill="#000000" fill-opacity="0.0" d="m392.0 288.3387l-88.0 -112.000015" fill-rule="nonzero"></path><path stroke="#6aa84f" stroke-width="3.0" stroke-linejoin="round" stroke-linecap="butt" d="m392.0 288.3387l-76.87921 -97.84628" fill-rule="evenodd"></path><path fill="#6aa84f" stroke="#6aa84f" stroke-width="3.0" stroke-linecap="butt" d="m319.01715 187.43102l-12.307556 -7.643753l4.5148315 13.766602z" fill-rule="evenodd"></path><path fill="#000000" fill-opacity="0.0" d="m424.0 288.3387l88.0 -112.000015" fill-rule="nonzero"></path><path stroke="#3d85c6" stroke-width="3.0" stroke-linejoin="round" stroke-linecap="butt" d="m424.0 288.3387l76.87921 -97.84628" fill-rule="evenodd"></path><path fill="#3d85c6" stroke="#3d85c6" stroke-width="3.0" stroke-linecap="butt" d="m504.77557 193.55386l4.5148315 -13.766602l-12.307556 7.643753z" fill-rule="evenodd"></path><path fill="#000000" fill-opacity="0.0" d="m472.0 288.3387l200.0 -112.000015" fill-rule="nonzero"></path><path stroke="#a64d79" stroke-width="3.0" stroke-linejoin="round" stroke-linecap="butt" d="m472.0 288.3387l184.29492 -103.20514" fill-rule="evenodd"></path><path fill="#a64d79" stroke="#a64d79" stroke-width="3.0" stroke-linecap="butt" d="m658.716 189.457l9.4574585 -10.975418l-14.299683 2.328537z" fill-rule="evenodd"></path><path fill="#000000" fill-opacity="0.0" d="m648.0 296.3387l144.22046 0l0 111.653534l-144.22046 0z" fill-rule="nonzero"></path><path stroke="#000000" stroke-width="2.0" stroke-linejoin="round" stroke-linecap="butt" d="m648.0 296.3387l144.22046 0l0 111.653534l-144.22046 0z" fill-rule="nonzero"></path><path fill="#000000" fill-opacity="0.0" d="m720.0 176.33868l0 112.0" fill-rule="nonzero"></path><path stroke="#a64d79" stroke-width="3.0" stroke-linejoin="round" stroke-linecap="butt" d="m720.0 176.33868l0 94.0" fill-rule="evenodd"></path><path fill="#a64d79" stroke="#a64d79" stroke-width="3.0" stroke-linecap="butt" d="m715.0448 270.33868l4.9552 13.614288l4.9552 -13.614288z" fill-rule="evenodd"></path><path fill="#a64d79" d="m760.22046 392.3387l-80.0 0l64.0 -40.0l16.0 8.0z" fill-rule="nonzero"></path><path stroke="#000000" stroke-width="2.0" stroke-linejoin="round" stroke-linecap="butt" d="m760.22046 392.3387l-80.0 0l64.0 -40.0l16.0 8.0z" fill-rule="nonzero"></path><path fill="#000000" fill-opacity="0.0" d="m720.22046 448.0l-0.22045898 -32.0" fill-rule="nonzero"></path><path stroke="#000000" stroke-width="3.0" stroke-linejoin="round" stroke-linecap="butt" d="m720.09644 430.0004l-0.09643555 -14.000397" fill-rule="evenodd"></path><path fill="#000000" stroke="#000000" stroke-width="3.0" stroke-linecap="butt" d="m715.14136 430.03458l5.048889 13.579834l4.861267 -13.648132z" fill-rule="evenodd"></path><path fill="#000000" fill-opacity="0.0" d="m680.22046 456.0l80.0 0l0 80.0l-80.0 0z" fill-rule="nonzero"></path><path stroke="#000000" stroke-width="2.0" stroke-linejoin="round" stroke-linecap="butt" d="m680.22046 456.0l80.0 0l0 80.0l-80.0 0z" fill-rule="nonzero"></path><path fill="#000000" fill-opacity="0.0" d="m687.8764 464.18896l64.50391 0l0 63.811035l-64.50391 0z" fill-rule="nonzero"></path><path fill="#000000" d="m719.22687 483.72147q-2.109375 0 -4.125 1.078125l-0.828125 -2.296875q1.09375 -0.578125 2.453125 -0.921875q1.359375 -0.359375 2.890625 -0.359375q1.828125 0 2.984375 0.5q1.171875 0.484375 1.875 1.265625q0.703125 0.765625 0.96875 1.71875q0.28125 0.9375 0.28125 1.796875q0 1.09375 -0.421875 1.9375q-0.40625 0.84375 -1.015625 1.578125q-0.609375 0.734375 -1.34375 1.40625q-0.734375 0.671875 -1.34375 1.390625q-0.609375 0.71875 -1.03125 1.578125q-0.40625 0.84375 -0.40625 1.90625q0 0.15625 0 0.34375q0 0.1875 0.03125 0.359375l-2.5 0q-0.125 -0.640625 -0.125 -1.34375q0 -1.03125 0.359375 -1.859375q0.375 -0.828125 0.953125 -1.546875q0.578125 -0.734375 1.21875 -1.34375q0.640625 -0.625 1.203125 -1.265625q0.578125 -0.640625 0.9375 -1.34375q0.375 -0.703125 0.375 -1.546875q0 -1.34375 -0.859375 -2.1875q-0.859375 -0.84375 -2.53125 -0.84375zm2.015625 18.453125q0 0.875 -0.578125 1.515625q-0.5625 0.640625 -1.5625 0.640625q-0.984375 0 -1.5625 -0.640625q-0.578125 -0.640625 -0.578125 -1.515625q0 -0.859375 0.578125 -1.5q0.578125 -0.640625 1.5625 -0.640625q1.0 0 1.5625 0.640625q0.578125 0.640625 0.578125 1.5z" fill-rule="nonzero"></path><path fill="#000000" fill-opacity="0.0" d="m224.0 64.0l160.12598 0l0 96.409454l-160.12598 0z" fill-rule="nonzero"></path><path stroke="#000000" stroke-width="2.0" stroke-linejoin="round" stroke-linecap="butt" d="m224.0 64.0l160.12598 0l0 96.409454l-160.12598 0z" fill-rule="nonzero"></path><path fill="#000000" fill-opacity="0.0" d="m16.052494 64.0l160.12599 0l0 96.59842l-160.12599 0z" fill-rule="nonzero"></path><path stroke="#000000" stroke-width="2.0" stroke-linejoin="round" stroke-linecap="butt" d="m16.052494 64.0l160.12599 0l0 96.59842l-160.12599 0z" fill-rule="nonzero"></path><path fill="#000000" fill-opacity="0.0" d="m648.0 304.0l144.0 0l0 48.0l-144.0 0z" fill-rule="nonzero"></path><path fill="#000000" d="m664.35657 334.91998l0 -13.171875l7.9375 0l0 1.578125l-6.09375 0l0 3.96875l5.40625 0l0 1.5625l-5.40625 0l0 6.0625l-1.84375 0zm9.346558 -4.921875q0 -1.3125 0.375 -2.28125q0.390625 -0.984375 1.015625 -1.625q0.625 -0.65625 1.4375 -0.96875q0.8125 -0.328125 1.671875 -0.328125q2.0 0 3.0625 1.25q1.0625 1.234375 1.0625 3.78125q0 0.109375 0 0.296875q0 0.1875 -0.015625 0.328125l-6.765625 0q0.109375 1.546875 0.890625 2.34375q0.78125 0.796875 2.4375 0.796875q0.921875 0 1.5625 -0.15625q0.640625 -0.171875 0.953125 -0.328125l0.25 1.484375q-0.3125 0.171875 -1.125 0.359375q-0.8125 0.203125 -1.828125 0.203125q-1.296875 0 -2.234375 -0.390625q-0.9375 -0.390625 -1.546875 -1.078125q-0.609375 -0.6875 -0.90625 -1.625q-0.296875 -0.9375 -0.296875 -2.0625zm6.78125 -0.96875q0.015625 -1.203125 -0.609375 -1.96875q-0.609375 -0.765625 -1.6875 -0.765625q-0.609375 0 -1.078125 0.234375q-0.46875 0.234375 -0.796875 0.625q-0.3125 0.375 -0.5 0.875q-0.171875 0.484375 -0.234375 1.0l4.90625 0zm12.272583 5.890625q-0.53125 -1.375 -1.140625 -3.125q-0.59375 -1.765625 -1.078125 -3.65625q-0.5 1.890625 -1.09375 3.65625q-0.578125 1.75 -1.109375 3.125l-1.546875 0q-0.875 -1.953125 -1.71875 -4.453125q-0.828125 -2.515625 -1.5625 -5.421875l1.890625 0q0.203125 0.890625 0.46875 1.9375q0.265625 1.046875 0.546875 2.09375q0.296875 1.03125 0.625 2.0q0.328125 0.96875 0.609375 1.703125q0.328125 -0.90625 0.640625 -1.890625q0.3125 -1.0 0.59375 -2.015625q0.28125 -1.015625 0.53125 -2.0q0.265625 -0.984375 0.453125 -1.828125l1.46875 0q0.171875 0.84375 0.40625 1.828125q0.25 0.984375 0.53125 2.0q0.296875 1.015625 0.609375 2.015625q0.3125 0.984375 0.640625 1.890625q0.28125 -0.734375 0.59375 -1.703125q0.3125 -0.96875 0.609375 -2.0q0.3125 -1.046875 0.578125 -2.09375q0.265625 -1.046875 0.453125 -1.9375l1.828125 0q-0.734375 2.90625 -1.578125 5.421875q-0.828125 2.5 -1.703125 4.453125l-1.546875 0zm5.8709106 -4.921875q0 -1.3125 0.375 -2.28125q0.390625 -0.984375 1.015625 -1.625q0.625 -0.65625 1.4375 -0.96875q0.8125 -0.328125 1.671875 -0.328125q2.0 0 3.0625 1.25q1.0625 1.234375 1.0625 3.78125q0 0.109375 0 0.296875q0 0.1875 -0.015625 0.328125l-6.765625 0q0.109375 1.546875 0.890625 2.34375q0.78125 0.796875 2.4375 0.796875q0.921875 0 1.5625 -0.15625q0.640625 -0.171875 0.953125 -0.328125l0.25 1.484375q-0.3125 0.171875 -1.125 0.359375q-0.8125 0.203125 -1.828125 0.203125q-1.296875 0 -2.234375 -0.390625q-0.9375 -0.390625 -1.546875 -1.078125q-0.609375 -0.6875 -0.90625 -1.625q-0.296875 -0.9375 -0.296875 -2.0625zm6.78125 -0.96875q0.015625 -1.203125 -0.609375 -1.96875q-0.609375 -0.765625 -1.6875 -0.765625q-0.609375 0 -1.078125 0.234375q-0.46875 0.234375 -0.796875 0.625q-0.3125 0.375 -0.5 0.875q-0.171875 0.484375 -0.234375 1.0l4.90625 0zm7.850708 -4.203125q0.21875 0 0.515625 0.03125q0.296875 0.03125 0.578125 0.078125q0.296875 0.046875 0.53125 0.09375q0.234375 0.046875 0.34375 0.09375l-0.296875 1.53125q-0.21875 -0.078125 -0.703125 -0.171875q-0.484375 -0.109375 -1.234375 -0.109375q-0.5 0 -0.984375 0.109375q-0.484375 0.09375 -0.640625 0.140625l0 8.296875l-1.765625 0l0 -9.46875q0.625 -0.21875 1.5625 -0.421875q0.9375 -0.203125 2.09375 -0.203125zm16.77655 -3.078125l0 1.59375l-4.15625 0l0 11.578125l-1.828125 0l0 -11.578125l-4.15625 0l0 -1.59375l10.140625 0zm1.6188965 13.171875l0 -14.4375l1.765625 -0.3125l0 5.0625q0.5 -0.1875 1.0625 -0.296875q0.5625 -0.109375 1.109375 -0.109375q1.171875 0 1.953125 0.34375q0.78125 0.328125 1.25 0.921875q0.46875 0.59375 0.65625 1.4375q0.1875 0.828125 0.1875 1.84375l0 5.546875l-1.765625 0l0 -5.171875q0 -0.90625 -0.125 -1.546875q-0.125 -0.65625 -0.40625 -1.046875q-0.28125 -0.40625 -0.765625 -0.578125q-0.46875 -0.1875 -1.171875 -0.1875q-0.28125 0 -0.59375 0.046875q-0.296875 0.03125 -0.578125 0.078125q-0.28125 0.046875 -0.5 0.109375q-0.21875 0.046875 -0.3125 0.09375l0 8.203125l-1.765625 0zm13.99646 -1.265625q0.625 0 1.109375 -0.03125q0.484375 -0.03125 0.8125 -0.109375l0 -2.9375q-0.1875 -0.109375 -0.625 -0.171875q-0.421875 -0.0625 -1.03125 -0.0625q-0.390625 0 -0.84375 0.0625q-0.4375 0.046875 -0.8125 0.234375q-0.375 0.171875 -0.625 0.484375q-0.234375 0.3125 -0.234375 0.828125q0 0.953125 0.59375 1.328125q0.609375 0.375 1.65625 0.375zm-0.140625 -8.859375q1.0625 0 1.78125 0.28125q0.734375 0.265625 1.171875 0.78125q0.453125 0.5 0.640625 1.1875q0.203125 0.6875 0.203125 1.53125l0 6.171875q-0.234375 0.03125 -0.640625 0.109375q-0.40625 0.0625 -0.921875 0.109375q-0.515625 0.0625 -1.109375 0.109375q-0.59375 0.046875 -1.1875 0.046875q-0.84375 0 -1.546875 -0.171875q-0.703125 -0.171875 -1.21875 -0.53125q-0.5 -0.375 -0.796875 -0.984375q-0.28125 -0.609375 -0.28125 -1.453125q0 -0.828125 0.328125 -1.40625q0.34375 -0.59375 0.90625 -0.953125q0.578125 -0.359375 1.328125 -0.53125q0.765625 -0.171875 1.609375 -0.171875q0.265625 0 0.546875 0.03125q0.28125 0.015625 0.53125 0.0625q0.265625 0.046875 0.453125 0.09375q0.1875 0.03125 0.265625 0.0625l0 -0.5q0 -0.4375 -0.09375 -0.859375q-0.09375 -0.4375 -0.34375 -0.765625q-0.25 -0.328125 -0.671875 -0.53125q-0.421875 -0.203125 -1.109375 -0.203125q-0.875 0 -1.53125 0.125q-0.65625 0.125 -0.984375 0.25l-0.203125 -1.453125q0.34375 -0.15625 1.140625 -0.296875q0.796875 -0.140625 1.734375 -0.140625zm6.5354614 0.53125q0.609375 -0.15625 1.609375 -0.328125q1.015625 -0.171875 2.328125 -0.171875q1.171875 0 1.953125 0.34375q0.78125 0.328125 1.25 0.921875q0.46875 0.59375 0.65625 1.4375q0.1875 0.828125 0.1875 1.84375l0 5.546875l-1.765625 0l0 -5.171875q0 -0.90625 -0.125 -1.546875q-0.125 -0.65625 -0.40625 -1.046875q-0.28125 -0.40625 -0.765625 -0.578125q-0.46875 -0.1875 -1.171875 -0.1875q-0.28125 0 -0.59375 0.015625q-0.296875 0.015625 -0.578125 0.046875q-0.28125 0.03125 -0.5 0.078125q-0.21875 0.03125 -0.3125 0.046875l0 8.34375l-1.765625 0l0 -9.59375zm24.877686 -3.578125q-0.578125 0.65625 -1.328125 1.453125q-0.734375 0.78125 -1.546875 1.609375q-0.8125 0.8125 -1.609375 1.625q-0.796875 0.796875 -1.5 1.46875q0.828125 0.578125 1.734375 1.421875q0.90625 0.828125 1.78125 1.78125q0.875 0.9375 1.640625 1.9375q0.78125 0.984375 1.296875 1.875l-2.171875 0q-0.578125 -0.890625 -1.3125 -1.796875q-0.734375 -0.90625 -1.5625 -1.71875q-0.828125 -0.828125 -1.671875 -1.53125q-0.84375 -0.703125 -1.640625 -1.203125l0 6.25l-1.84375 0l0 -13.171875l1.84375 0l0 5.8125q0.65625 -0.625 1.453125 -1.40625q0.796875 -0.796875 1.578125 -1.59375q0.78125 -0.796875 1.46875 -1.515625q0.703125 -0.734375 1.171875 -1.296875l2.21875 0z" fill-rule="nonzero"></path></g></svg>

